<svg width="330" height="30" viewBox="0 0 330 30" fill="none" xmlns="http://www.w3.org/2000/svg">
<path d="M22.722 15.1993L24.465 14.4347V2.81331H23.145L19.923 6.43535H19.56L19.763 2.36151H33.73L33.933 6.43874H33.546L30.392 2.8167H29.035V14.405L30.788 15.1899V15.5841H22.72V15.1993M35.295 14.6873V1.80291L33.938 1.34263V1.10528L38.838 0.340698H39.374V6.44382L39.489 6.34634C40.661 5.50208 42.146 5.03417 43.684 5.02654C45.827 5.02654 46.784 6.05221 46.784 7.96452V14.6712L47.93 15.2001V15.568H41.53V15.2001L42.68 14.6686V7.94163C42.68 6.89054 42.137 6.4701 41.123 6.4701C40.511 6.45908 39.913 6.62607 39.427 6.94479V14.689L40.557 15.2179V15.5688H34.154V15.2179L35.314 14.672M51.409 10.7169C51.541 12.836 52.667 14.4915 55.333 14.4915C56.623 14.4915 57.537 13.9854 58.385 13.6014V14.021C57.8151 14.6101 57.096 15.0829 56.2812 15.4044C55.4664 15.7259 54.5767 15.8878 53.678 15.8782C49.548 15.8782 47.438 13.932 47.438 10.5634C47.438 7.26944 49.748 5.21642 53.478 5.21642C56.978 5.21642 58.808 6.70236 58.808 10.6211V10.7228L51.408 10.7202M51.34 10.2286L54.982 10.0421C54.982 7.41439 54.45 5.6555 53.382 5.6555C52.242 5.65805 51.34 7.68988 51.34 10.2328V10.2303M0 20.7387C0 15.1442 4.375 13.1412 9.248 13.1412C11.318 13.1412 13.268 13.4294 14.358 13.8049L14.453 17.7143H13.988L11.128 13.9312C10.553 13.7362 9.935 13.6514 9.318 13.6837C6.728 13.6837 5.401 16.2224 5.445 20.3818C5.492 25.3576 6.513 27.6208 8.891 27.6208C9.378 27.6344 9.863 27.5657 10.319 27.4199V22.0899L8.749 21.3338V20.8794H16.332V21.3566L14.786 22.0899V27.3504C12.946 27.9031 11.006 28.1811 9.056 28.1752C3.518 28.1752 0.0010004 25.9993 0.0010004 20.7387M15.628 18.1254V17.8007L20.715 17.0378L21.275 17.0777V25.5983C21.275 26.624 21.858 26.941 22.835 26.941C23.1521 26.945 23.466 26.8875 23.7529 26.7729C24.0397 26.6584 24.2918 26.4897 24.49 26.2798V18.6357L23.093 18.1211V17.788L28.18 17.0251L28.692 17.065V26.8384L30.065 27.3275V27.6378L25.075 28.1464L24.563 28.1065V26.8215H24.423C23.399 27.6691 22.023 28.1565 20.601 28.1837C18.156 28.1837 17.037 26.9588 17.037 25.1016V18.6255L15.627 18.1135M47.597 17.0099L48.017 17.0497V20.2115H48.132C48.678 17.9118 49.879 17.0497 51.347 17.0497C51.5602 17.0413 51.7733 17.0686 51.974 17.1302V20.3327C51.6297 20.2709 51.2778 20.2447 50.926 20.2547C49.972 20.2335 49.024 20.3937 48.152 20.7234V26.9588L49.312 27.5047V27.9328H42.7V27.5072L43.9 26.958V18.4594L42.503 18.1059V17.8177L47.607 17.0209M60.402 17.2853V13.9591L59.005 13.5455V13.2827L64.153 12.4808L64.641 12.5402V26.8249L66.061 27.2614V27.6293L60.974 28.204L60.577 28.1642V26.9927H60.462C60.0275 27.3832 59.5012 27.6922 58.9171 27.8997C58.3331 28.1072 57.7042 28.2085 57.071 28.1972C54.297 28.1972 52.271 26.4002 52.271 22.7349C52.271 18.8628 54.625 16.9599 58.189 16.9599C58.9457 16.9272 59.7014 17.0393 60.4 17.2879M60.4 26.4383V17.8855C60.207 17.7466 59.9829 17.6422 59.7411 17.5786C59.4993 17.5149 59.2449 17.4933 58.993 17.5151C57.616 17.5549 56.765 19.3172 56.765 22.4594C56.765 25.2821 57.365 26.8639 59.21 26.8079C59.6464 26.8101 60.069 26.6794 60.4 26.4383ZM71.64 17.0226L72.08 17.0624V26.98L73.243 27.5259V27.954H66.63V27.5284L67.817 26.9791V18.6179L66.397 18.1432V17.8041L71.64 17.0133M72.105 14.3347C72.065 15.362 71.059 16.1724 69.845 16.1512C69.4527 16.1645 69.0635 16.0878 68.7184 15.9291C68.3733 15.7704 68.0852 15.5357 67.8844 15.2497C67.6836 14.9637 67.5777 14.6371 67.5778 14.3043C67.5779 13.9715 67.6841 13.6449 67.885 13.359C68.0856 13.073 68.3737 12.8383 68.7186 12.6795C69.0636 12.5208 69.4528 12.4439 69.845 12.4571C70.1379 12.4538 70.4286 12.4995 70.7006 12.5915C70.9726 12.6835 71.2206 12.8201 71.4304 12.9933C71.6402 13.1666 71.8076 13.3731 71.9232 13.6013C72.0388 13.8294 72.1002 14.0745 72.104 14.3228V14.3347M86.954 26.963V18.5246L85.557 18.111V17.7024L90.644 16.9005L91.156 16.9404V18.2051H91.296C92.5043 17.3296 94.0404 16.8468 95.63 16.8429C97.845 16.8429 98.82 17.7312 98.82 19.7164V26.952L100.007 27.5267V27.9438H93.384V27.5183L94.571 26.969V19.8978C94.571 18.8111 94.011 18.3771 92.964 18.3771C92.3355 18.3623 91.7197 18.5284 91.217 18.8484V26.969L92.384 27.5149V27.9472H85.76V27.5216L86.947 26.9724M79.751 21.666V20.2488C79.751 18.1161 79.201 17.4176 77.645 17.4176C77.469 17.421 77.293 17.4345 77.119 17.4574L74.349 20.6395H73.949V17.7066C75.446 17.2709 77.016 17.0404 78.599 17.0226C81.989 17.0226 83.954 17.8194 83.954 20.225V27.1249L85.168 27.3962V27.6674C84.3968 28.0032 83.5388 28.1702 82.672 28.1532C81 28.1532 80.2 27.6869 79.832 26.9113H79.712C79.002 27.7251 77.996 28.1913 76.416 28.1913C74.402 28.1913 73.026 27.1249 73.026 25.2821C73.026 23.497 74.332 22.5273 76.986 22.1L79.74 21.6677M79.74 26.44V22.1712L78.892 22.2289C77.562 22.3264 77.084 23.0452 77.084 24.6362C77.084 26.3612 77.762 26.8096 78.684 26.8096C78.8818 26.8251 79.0811 26.7997 79.2649 26.7356C79.4486 26.6716 79.6113 26.5707 79.739 26.4417M36.801 21.6694V20.2521C36.801 18.1194 36.251 17.421 34.695 17.421C34.5188 17.4246 34.3431 17.4379 34.169 17.4608L31.4 20.6353H31.013V17.7058C32.5091 17.2704 34.0773 17.0395 35.659 17.0217C39.049 17.0217 41.014 17.8185 41.014 20.2242V27.1241L42.228 27.3953V27.6666C41.4568 28.0023 40.5988 28.1693 39.732 28.1523C38.06 28.1523 37.26 27.6861 36.892 26.9105H36.777C36.067 27.7242 35.061 28.1904 33.481 28.1904C31.467 28.1904 30.091 27.1241 30.091 25.2813C30.091 23.4961 31.397 22.5264 34.051 22.0992L36.801 21.6669M36.801 26.4392V22.1704L35.953 22.228C34.623 22.3255 34.145 23.0443 34.145 24.6354C34.145 26.3604 34.823 26.8088 35.745 26.8088C35.9428 26.8242 36.1421 26.7988 36.3259 26.7348C36.5096 26.6707 36.6723 26.5699 36.8 26.4409" fill="white"/>
<path d="M166.182 29.534H159.268V24.4548C159.268 23.7708 158.922 23.185 158.461 22.6968L155.811 20.4505C155.235 20.0606 154.543 19.7664 153.737 19.7664H152.354V29.534H145.44V13.9032H155.466C156.964 13.9032 158.462 14.3914 159.499 15.3696L164.454 19.5698C165.606 20.4488 166.184 21.7186 166.184 22.9884L166.182 29.534ZM196.144 13.9032V18.9824C196.144 19.6664 195.798 20.2521 195.337 20.7404L192.687 22.9867C192.111 23.4749 191.419 23.6707 190.613 23.6707H187.733C188.655 22.7917 189.231 21.6194 189.231 20.4471V13.9032H182.317V18.9824C182.317 19.6664 181.971 20.2521 181.51 20.7404L178.86 22.9867C178.284 23.4749 177.592 23.6707 176.786 23.6707H175.4V13.9032H168.486V29.534H178.512C180.01 29.534 181.508 29.0457 182.545 28.0675L185.772 25.3321V29.5323H192.342C193.84 29.5323 195.338 29.044 196.375 28.0658L201.33 23.8657C202.482 22.9867 203.06 21.7169 203.06 20.4471V13.9032H196.144ZM143.144 13.9032H127V19.7639H131.6V29.534H138.514V19.7647H143.114" fill="white"/>
<path d="M230 23.2981C230 24.198 230.858 24.9292 231.98 24.9292H239.898V23.2419H231.98V21.5545H239.766C240.822 21.5545 241.877 20.8233 241.877 19.9234V19.9796V16.6611C241.877 15.7612 240.888 14.8613 239.766 14.8613H231.98C230.924 14.8613 230 15.7612 230 16.6611V23.2981ZM239.962 19.7329H231.916V16.4851H239.962V19.7329ZM266.401 14.8613H258.548C257.493 14.8613 256.437 15.749 256.437 16.6367V23.2391V23.1836C256.437 24.0713 257.493 24.848 258.548 24.848H266.335V26.5125H258.416V28.177H266.401C267.456 28.177 268.314 27.4002 268.314 26.5125V16.6367C268.314 15.749 267.456 14.8613 266.401 14.8613ZM266.398 23.3054H258.352V16.4851H266.398L266.398 23.3054ZM250.945 14.8613H245.072C244.017 14.8613 243.027 15.7562 243.027 16.6511V24.9292H245.006V16.5393H250.945C252.001 16.5393 252.925 17.3783 252.925 18.3291V24.9292H254.904V18.3291C254.904 16.4833 253.123 14.8613 250.945 14.8613ZM279.361 23.2512H271.443V18.2732C271.443 17.3783 272.499 16.4833 273.621 16.4833H279.361V24.8733H281.341V16.6511C281.341 15.7562 280.549 14.8613 279.493 14.8613H273.621C271.443 14.8613 269.464 16.4833 269.464 18.3291V23.3072C269.464 24.2021 270.585 24.9292 271.641 24.9292H275.072C276.854 24.9292 278.702 24.314 279.361 23.2512ZM323.966 9.66492H321.954V24.9292H323.966V16.4491H330V14.753H323.966V9.66492ZM296.284 23.2391C296.284 24.1268 296.872 24.848 297.918 24.848H305.434V26.5125H298.244V28.177H305.695C306.741 28.177 307.395 27.4002 307.395 26.457V26.5125V16.6367C307.395 15.749 306.741 14.8613 305.695 14.8613H297.918C296.872 14.8613 296.284 15.749 296.284 16.6367V23.2391ZM305.862 23.3054H298.582V16.4851H305.862V23.3054ZM292.388 14.753H284.734C283.678 14.753 282.49 15.6576 282.49 16.5621V23.2897V23.2332C282.49 24.1377 283.678 24.9292 284.734 24.9292H294.368V9.66492H292.388V14.753ZM292.835 23.3054H284.789V16.4851H292.835V23.3054ZM308.927 23.2982C308.927 24.1981 310.049 24.9293 311.105 24.9293H318.825V23.2419H310.907V21.5545H318.957C320.013 21.5545 320.805 20.8233 320.805 19.9234V19.9797V16.6612C320.805 15.7612 320.013 14.8613 318.957 14.8613H311.105C310.049 14.8613 308.927 15.7612 308.927 16.6612V23.2982ZM318.889 19.7329H310.843V16.4852H318.889V19.7329Z" fill="white"/>
</svg>
