<svg width="29" height="25" viewBox="0 0 29 25" fill="none" xmlns="http://www.w3.org/2000/svg">
<path d="M10.6783 4.89487C12.3801 2.29829 13.2303 1 14.5024 1C15.7744 1 16.6246 2.29829 18.3264 4.89487L18.767 5.56687C19.2505 6.30516 19.4923 6.6743 19.8684 6.91773C20.2445 7.16116 20.7146 7.25145 21.6548 7.43202L22.5091 7.59659C25.8134 8.23316 27.4641 8.55088 27.8577 9.62631C28.2499 10.7006 27.1243 11.8217 24.8718 14.0629L24.2888 14.6423C23.6495 15.2789 23.3285 15.5978 23.1847 15.9909C23.041 16.3852 23.0894 16.8103 23.1861 17.6595L23.2747 18.4332C23.6146 21.4241 23.7851 22.9189 22.7563 23.5829C21.7274 24.2481 20.18 23.6412 17.088 22.4298L16.2861 22.1166C15.4077 21.7715 14.9684 21.6001 14.5024 21.6001C14.0363 21.6001 13.597 21.7715 12.7173 22.1166L11.9181 22.4298C8.82468 23.6412 7.27733 24.2469 6.24979 23.5841C5.21956 22.9189 5.39015 21.4241 5.72997 18.4332L5.81862 17.6606C5.91533 16.8103 5.96369 16.3852 5.81862 15.992C5.67625 15.5978 5.35522 15.2789 4.71586 14.6435L4.13292 14.0629C1.88039 11.8229 0.754795 10.7017 1.14701 9.62631C1.54056 8.55088 3.19269 8.23202 6.49694 7.59659L7.3512 7.43202C8.2901 7.25145 8.75887 7.16116 9.13631 6.91773C9.5124 6.6743 9.75417 6.30516 10.2377 5.56687L10.6783 4.89487Z" stroke="white" stroke-width="1.5"/>
</svg>
