<svg width="28" height="23" viewBox="0 0 28 23" fill="none" xmlns="http://www.w3.org/2000/svg">
<path d="M10.0868 4.03772C11.7886 1.44114 12.6389 0.142853 13.9109 0.142853C15.1829 0.142853 16.0331 1.44114 17.735 4.03772L18.1755 4.70972C18.6591 5.44801 18.9008 5.81715 19.2769 6.06058C19.653 6.30401 20.1231 6.3943 21.0634 6.57487L21.9177 6.73944C25.2219 7.37602 26.8727 7.69373 27.2662 8.76916C27.6584 9.84345 26.5329 10.9646 24.2803 13.2057L23.6974 13.7852C23.058 14.4218 22.737 14.7406 22.5933 15.1338C22.4496 15.528 22.4979 15.9532 22.5946 16.8023L22.6833 17.576C23.0231 20.5669 23.1937 22.0618 22.1648 22.7258C21.1359 23.3909 19.5886 22.7841 16.4965 21.5726L15.6946 21.2595C14.8162 20.9143 14.377 20.7429 13.9109 20.7429C13.4448 20.7429 13.0056 20.9143 12.1258 21.2595L11.3266 21.5726C8.23322 22.7841 6.68587 23.3898 5.65833 22.7269C4.6281 22.0618 4.79868 20.5669 5.13851 17.576L5.22716 16.8035C5.32387 15.9532 5.37223 15.528 5.22716 15.1349C5.08478 14.7406 4.76376 14.4218 4.1244 13.7863L3.54146 13.2057C1.28893 10.9657 0.163334 9.8446 0.555546 8.76916C0.949101 7.69373 2.60123 7.37487 5.90547 6.73944L6.75974 6.57487C7.69863 6.3943 8.16741 6.30401 8.54484 6.06058C8.92094 5.81715 9.16271 5.44801 9.64626 4.70972L10.0868 4.03772Z" fill="white"/>
</svg>
