<svg width="28" height="23" viewBox="0 0 28 23" fill="none" xmlns="http://www.w3.org/2000/svg">
<path d="M22.9145 16.8766C21.0786 17.2517 19.162 17.2336 17.3364 16.8237C15.5108 16.4139 13.8331 15.6253 12.4536 14.5284C11.0741 13.4315 10.0358 12.0607 9.43175 10.5386C8.8277 9.01655 8.67674 7.39078 8.99237 5.80688C8.94437 5.84633 8.89369 5.88335 8.84059 5.91774C8.4645 6.16117 7.99438 6.25146 7.05415 6.43203L6.20122 6.5966C2.89697 7.23317 1.24485 7.55089 0.851292 8.62632C0.45908 9.70061 1.58467 10.8218 3.8372 13.0629L4.42015 13.6423C5.05951 14.2789 5.38053 14.5978 5.52425 14.9909C5.66797 15.3852 5.61962 15.8103 5.52291 16.6595L5.43426 17.4332C5.09443 20.4241 4.92385 21.9189 5.95273 22.5829C6.98161 23.2481 8.52897 22.6424 11.621 21.4298L12.4229 21.1166C13.3013 20.7715 13.7405 20.6001 14.2066 20.6001C14.6727 20.6001 15.1119 20.7715 15.9917 21.1166L16.7909 21.4298C19.8843 22.6412 21.4317 23.2469 22.4592 22.5841C23.4894 21.9189 23.3188 20.4241 22.979 17.4332L22.9145 16.8766Z" fill="white"/>
<path opacity="0.5" d="M10.3826 3.89487L9.94199 4.56687C9.45844 5.30516 9.21666 5.6743 8.84057 5.91773C8.8943 5.88345 8.944 5.84687 8.99235 5.80687C8.67664 7.39089 8.8276 9.0168 9.4317 10.539C10.0358 12.0612 11.0742 13.4321 12.4539 14.529C13.8336 15.6259 15.5115 16.4145 17.3373 16.8242C19.1631 17.2339 21.0799 17.2519 22.9159 16.8766L22.889 16.6595C22.7936 15.8103 22.7453 15.3852 22.889 14.9909C23.0327 14.5978 23.3524 14.2789 23.9931 13.6423L24.576 13.0629C26.8286 10.8229 27.9542 9.70174 27.5606 8.62631C27.1684 7.55088 25.5163 7.23202 22.212 6.59659L21.3578 6.43202C20.4189 6.25145 19.9488 6.16116 19.5713 5.91773C19.1952 5.6743 18.9535 5.30516 18.4699 4.56687L18.0307 3.89487C16.3289 1.29829 15.4786 0 14.2066 0C12.9346 0 12.0844 1.29829 10.3826 3.89487Z" fill="white"/>
</svg>
